<svg width="173" height="32" viewBox="0 0 173 32" fill="none" xmlns="http://www.w3.org/2000/svg">
<path d="M3.32507 21.8875H26.6749V22.9068C26.6749 26.2205 23.9886 28.9068 20.6749 28.9068H9.32507C6.01136 28.9068 3.32507 26.2205 3.32507 22.9068V21.8875Z" fill="#6EB2FF"/>
<path fill-rule="evenodd" clip-rule="evenodd" d="M3.96446 4.21544C2.5 5.67991 2.5 6.03693 2.5 12.751V17.751C2.5 22.465 2.5 24.8221 3.96446 26.2865C5.42894 27.751 7.78595 27.751 12.5 27.751H17.5C22.214 27.751 24.5711 27.751 26.0355 26.2865C27.5 24.8221 27.5 22.465 27.5 17.751V12.751C27.5 8.03693 27.5 5.67991 26.0355 4.21544C24.5711 2.75098 22.214 2.75098 17.5 2.75098H12.5C7.78595 2.75098 5.42894 2.75098 3.96446 4.21544ZM15.6343 21.1539L15.625 21.1587V10.6044L15.6524 10.589C16.344 10.1888 17.4606 9.59293 18.375 9.33946C19.0505 9.15221 19.9256 9.06594 20.696 9.0281C21.7024 8.97868 22.5 9.80776 22.5 10.8154V17.6395C22.5 18.6806 21.6509 19.5199 20.6126 19.5972C19.9799 19.6444 19.2969 19.7239 18.75 19.8575C17.7043 20.113 16.3968 20.7521 15.6343 21.1539ZM7.5 10.8716V17.6395C7.5 18.6806 8.34918 19.5199 9.38739 19.5972C10.0201 19.6444 10.7031 19.7239 11.25 19.8575C12.2957 20.113 13.6033 20.7521 14.3658 21.1539L14.375 21.1587V10.6397C14.3601 10.6325 14.3454 10.6251 14.3308 10.6175C13.5638 10.2149 12.2799 9.5911 11.25 9.33946C10.6949 9.20383 9.99959 9.12403 9.35896 9.07711C8.33174 9.0019 7.5 9.84161 7.5 10.8716Z" fill="#0077FF"/>
<path fill-rule="evenodd" clip-rule="evenodd" d="M12.1001 2.75098C8.7397 2.75098 7.0595 2.75098 5.77603 3.40494C4.64705 3.98018 3.72917 4.89806 3.15393 6.02703C2.49997 7.3105 2.49997 8.9907 2.49997 12.3511C2.49997 12.4848 2.49997 12.6181 2.49997 12.751V17.751C2.49997 17.8839 2.49997 18.0172 2.49997 18.1508C2.49997 21.5112 2.49997 23.1914 3.15393 24.4749C3.72917 25.6039 4.64705 26.5218 5.77603 27.097C7.0595 27.751 8.7397 27.751 12.1001 27.751C12.2338 27.751 12.3671 27.751 12.5 27.751H17.5C17.6329 27.751 17.7662 27.751 17.8999 27.751C21.2602 27.751 22.9404 27.751 24.2239 27.097C25.3529 26.5218 26.2708 25.6039 26.846 24.4749C27.5 23.1914 27.5 21.5113 27.5 18.1509C27.5 18.0172 27.5 17.8839 27.5 17.751V12.751C27.5 12.6181 27.5 12.4848 27.5 12.3511C27.5 8.9907 27.5 7.3105 26.846 6.02703C26.2708 4.89806 25.3529 3.98018 24.2239 3.40494C22.9404 2.75098 21.2602 2.75098 17.8998 2.75098C17.7662 2.75098 17.6329 2.75098 17.5 2.75098H12.5C12.3671 2.75098 12.2338 2.75098 12.1001 2.75098ZM15.6342 21.1539C15.63 21.1561 15.625 21.153 15.625 21.1483V10.6359C15.625 10.6165 15.6354 10.5985 15.6523 10.589C16.344 10.1888 17.4606 9.59293 18.375 9.33946C19.0505 9.15221 19.9256 9.06594 20.696 9.0281C21.7023 8.97868 22.5 9.80776 22.5 10.8154V17.6395C22.5 18.6806 21.6508 19.5199 20.6126 19.5972C19.9798 19.6444 19.2968 19.7239 18.75 19.8575C17.7042 20.113 16.3967 20.7521 15.6342 21.1539ZM7.49997 10.8716V17.6395C7.49997 18.6806 8.34915 19.5199 9.38736 19.5972C10.0201 19.6444 10.7031 19.7239 11.25 19.8575C12.2957 20.113 13.6032 20.7521 14.3657 21.1539C14.3699 21.1561 14.375 21.153 14.375 21.1483V10.6892C14.375 10.6589 14.3575 10.6315 14.3307 10.6175C13.5637 10.2149 12.2798 9.5911 11.25 9.33946C10.6949 9.20383 9.99956 9.12403 9.35894 9.07711C8.33171 9.0019 7.49997 9.84161 7.49997 10.8716Z" fill="#0077FF"/>
<path d="M41.2706 7.14561C44.2192 7.14561 46.5428 8.19131 48.2412 10.2827C49.7309 12.0967 50.4311 14.3396 50.342 17.0116C50.3202 17.6671 49.762 18.1603 49.1062 18.1603H37.9368C37.726 18.1603 37.5717 18.3604 37.6496 18.5563C37.8677 19.1049 38.2255 19.5771 38.7229 19.9729C39.3363 20.4609 40.1265 20.7513 41.0937 20.8443C41.7777 20.8908 42.4382 20.7978 43.0752 20.5654C43.436 20.4206 43.74 20.246 43.9873 20.0415C44.3252 19.7621 44.7203 19.5197 45.1588 19.5197H48.4529C49.3058 19.5197 49.926 20.3418 49.5347 21.0996C48.9214 22.2873 48.0302 23.2595 46.8612 24.0162C45.2336 25.0852 43.3346 25.6196 41.1644 25.6196C38.2865 25.6196 36.0338 24.7366 34.4061 22.9705C32.802 21.1812 32 18.9853 32 16.3826C32 13.7335 32.861 11.5376 34.583 9.79472C36.3286 8.02865 38.5578 7.14561 41.2706 7.14561ZM41.2352 11.8861C40.3624 11.8861 39.5957 12.0953 38.9352 12.5135C38.433 12.825 38.0481 13.2305 37.7806 13.7298C37.6746 13.9275 37.8294 14.1518 38.0537 14.1518H44.3936C44.6144 14.1518 44.7696 13.9337 44.6744 13.7344C44.0861 12.5022 42.9397 11.8861 41.2352 11.8861Z" fill="#0077FF"/>
<path d="M65.2685 9.79472C65.3201 9.79472 65.362 9.75285 65.362 9.70121V3.86104C65.362 1.72865 67.0906 0 69.223 0H69.5241C70.2349 0 70.8111 0.576216 70.8111 1.28701V24.0789C70.8111 24.6755 70.4011 25.1939 69.8206 25.3313L68.0541 25.7497C67.5053 25.8796 66.9358 25.6371 66.6491 25.1514L65.3998 23.0347C65.3764 22.9949 65.3336 22.9705 65.2875 22.9705C65.2454 22.9705 65.206 22.9909 65.1811 23.0248C64.6195 23.7899 63.8777 24.4109 62.9559 24.8876C62.0123 25.3756 60.9508 25.6196 59.7713 25.6196C57.3652 25.6196 55.3955 24.7482 53.8622 23.0054C52.3525 21.2393 51.5976 19.0085 51.5976 16.3129C51.5976 13.5941 52.3643 11.3865 53.8976 9.69015C55.4545 7.99379 57.4124 7.14561 59.7713 7.14561C60.9508 7.14561 62.0123 7.38961 62.9559 7.8776C63.8839 8.35755 64.6294 8.98361 65.1923 9.75578C65.2101 9.78015 65.2383 9.79472 65.2685 9.79472ZM58.3206 13.4198C57.5421 14.1867 57.1529 15.1743 57.1529 16.3826C57.1529 17.591 57.5421 18.5902 58.3206 19.3803C59.099 20.1471 60.078 20.5306 61.2574 20.5306C62.4369 20.5306 63.4159 20.1355 64.1943 19.3454C64.9728 18.5554 65.362 17.5678 65.362 16.3826C65.362 15.2207 64.9728 14.2448 64.1943 13.4547C63.4394 12.6413 62.4605 12.2347 61.2574 12.2347C60.078 12.2347 59.099 12.6297 58.3206 13.4198Z" fill="#0077FF"/>
<path d="M73.5216 16.9055V11.5644C73.5216 9.43197 75.2503 7.70332 77.3827 7.70332H77.7191C78.4299 7.70332 79.0061 8.27954 79.0061 8.99033V16.8358C79.0061 17.835 79.2892 18.6832 79.8553 19.3803C80.4215 20.0542 81.2471 20.3911 82.3322 20.3911C83.4173 20.3911 84.2429 20.0542 84.8091 19.3803C85.3752 18.6832 85.6583 17.835 85.6583 16.8358V11.5644C85.6583 9.43197 87.3869 7.70332 89.5193 7.70332H89.8558C90.5666 7.70332 91.1428 8.27954 91.1428 8.99033V16.9055C91.1428 19.6011 90.3525 21.7273 88.7721 23.2842C87.2152 24.8412 85.0686 25.6196 82.3322 25.6196C79.6194 25.6196 77.4728 24.8412 75.8923 23.2842C74.3119 21.7273 73.5216 19.6011 73.5216 16.9055Z" fill="#0077FF"/>
<path d="M104.893 7.14561C107.252 7.14561 109.198 7.99379 110.732 9.69015C112.289 11.3865 113.067 13.5941 113.067 16.3129C113.067 19.0085 112.3 21.2393 110.767 23.0054C109.257 24.7482 107.3 25.6196 104.893 25.6196C103.714 25.6196 102.652 25.3756 101.709 24.8876C100.787 24.4109 100.045 23.7899 99.4837 23.0248C99.4588 22.9909 99.4193 22.9705 99.3773 22.9705C99.3311 22.9705 99.2884 22.9949 99.2649 23.0347L98.0156 25.1514C97.729 25.6371 97.1595 25.8796 96.6107 25.7497L94.8441 25.3313C94.2636 25.1939 93.8537 24.6755 93.8537 24.0789V1.28701C93.8537 0.576215 94.4299 0 95.1407 0H95.4417C97.5741 0 99.3028 1.72865 99.3028 3.86104V9.70122C99.3028 9.75286 99.3446 9.79472 99.3963 9.79472C99.4264 9.79472 99.4547 9.78015 99.4724 9.75579C100.035 8.98362 100.781 8.35755 101.709 7.8776C102.652 7.38961 103.714 7.14561 104.893 7.14561ZM100.47 19.3454C101.249 20.1355 102.228 20.5306 103.407 20.5306C104.587 20.5306 105.566 20.1471 106.344 19.3803C107.123 18.5902 107.512 17.591 107.512 16.3826C107.512 15.1743 107.123 14.1867 106.344 13.4198C105.566 12.6297 104.587 12.2347 103.407 12.2347C102.204 12.2347 101.213 12.6413 100.435 13.4547C99.6802 14.2448 99.3028 15.2207 99.3028 16.3826C99.3028 17.5678 99.692 18.5554 100.47 19.3454Z" fill="#0077FF"/>
<path d="M128.549 9.79472C128.596 9.79472 128.638 9.77032 128.662 9.73055L128.987 9.17941C129.823 7.76272 131.498 7.05865 133.099 7.43771C133.667 7.57227 134.073 8.08087 134.073 8.66486V24.0789C134.073 24.6755 133.663 25.1939 133.083 25.3313L131.316 25.7497C130.767 25.8796 130.198 25.6371 129.911 25.1514L128.662 23.0347C128.638 22.9949 128.596 22.9705 128.549 22.9705C128.507 22.9705 128.468 22.9909 128.443 23.0248C127.881 23.7899 127.14 24.4109 126.218 24.8876C125.274 25.3756 124.213 25.6196 123.033 25.6196C120.674 25.6196 118.716 24.7715 117.16 23.0751C115.626 21.3787 114.86 19.1712 114.86 16.4523C114.86 13.7568 115.615 11.5376 117.124 9.79472C118.658 8.02865 120.627 7.14561 123.033 7.14561C124.213 7.14561 125.274 7.38961 126.218 7.8776C127.14 8.35437 127.881 8.97532 128.443 9.74045C128.468 9.77437 128.507 9.79472 128.549 9.79472ZM124.519 20.5306C125.722 20.5306 126.701 20.1355 127.456 19.3454C128.235 18.5321 128.624 17.5445 128.624 16.3826C128.624 15.1975 128.235 14.2099 127.456 13.4198C126.678 12.6297 125.699 12.2347 124.519 12.2347C123.34 12.2347 122.361 12.6297 121.583 13.4198C120.804 14.1867 120.415 15.1743 120.415 16.3826C120.415 17.591 120.804 18.5902 121.583 19.3803C122.361 20.1471 123.34 20.5306 124.519 20.5306Z" fill="#0077FF"/>
<path d="M151.951 11.6629C151.951 12.0252 151.799 12.3706 151.531 12.6145L144.144 19.3404C143.927 19.5384 144.067 19.9001 144.361 19.9001H148.444C150.576 19.9001 152.305 21.6287 152.305 23.7611V23.8416C152.305 24.5524 151.729 25.1286 151.018 25.1286H137.315C136.605 25.1286 136.028 24.5524 136.028 23.8416V21.1659C136.028 20.8037 136.181 20.4582 136.449 20.2143L143.835 13.4884C144.053 13.2905 143.913 12.9288 143.619 12.9288H140.243C138.111 12.9288 136.382 11.2001 136.382 9.06771V8.98727C136.382 8.27648 136.958 7.70026 137.669 7.70026H150.664C151.375 7.70026 151.951 8.27648 151.951 8.98728V11.6629Z" fill="#0077FF"/>
<path d="M166.848 9.82652C166.894 9.82652 166.937 9.80212 166.961 9.76235L168.21 7.64562C168.497 7.15992 169.066 6.91743 169.615 7.04739L171.381 7.46572C171.962 7.60318 172.372 8.12155 172.372 8.7181V24.1107C172.372 24.7073 171.962 25.2257 171.381 25.3631L169.615 25.7815C169.066 25.9114 168.497 25.6689 168.21 25.1832L166.961 23.0665C166.937 23.0267 166.894 23.0023 166.848 23.0023C166.806 23.0023 166.767 23.0227 166.742 23.0566C166.18 23.8217 165.439 24.4427 164.517 24.9194C163.573 25.4074 162.512 25.6514 161.332 25.6514C158.973 25.6514 157.015 24.8033 155.458 23.1069C153.925 21.4105 153.158 19.203 153.158 16.4841C153.158 13.7886 153.913 11.5693 155.423 9.82652C156.956 8.06044 158.926 7.17741 161.332 7.17741C162.512 7.17741 163.573 7.42141 164.517 7.9094C165.439 8.38617 166.18 9.00712 166.742 9.77225C166.767 9.80617 166.806 9.82652 166.848 9.82652ZM162.818 20.5624C164.021 20.5624 165 20.1673 165.755 19.3772C166.534 18.5639 166.923 17.5763 166.923 16.4144C166.923 15.2293 166.534 14.2417 165.755 13.4516C164.977 12.6615 163.998 12.2665 162.818 12.2665C161.639 12.2665 160.66 12.6615 159.881 13.4516C159.103 14.2185 158.714 15.2061 158.714 16.4144C158.714 17.6228 159.103 18.622 159.881 19.4121C160.66 20.1789 161.639 20.5624 162.818 20.5624Z" fill="#0077FF"/>
</svg>
