<svg width="141" height="32" viewBox="0 0 141 32" fill="none" xmlns="http://www.w3.org/2000/svg">
<path d="M9.27057 7.14561C12.2192 7.14561 14.5428 8.19131 16.2412 10.2827C17.7309 12.0967 18.4311 14.3396 18.342 17.0116C18.3202 17.6671 17.762 18.1603 17.1062 18.1603H5.93678C5.72597 18.1603 5.57172 18.3604 5.64961 18.5563C5.86774 19.1049 6.22551 19.5771 6.72294 19.9729C7.33626 20.4609 8.12649 20.7513 9.09365 20.8443C9.77774 20.8908 10.4382 20.7978 11.0752 20.5654C11.436 20.4206 11.74 20.246 11.9873 20.0415C12.3252 19.7621 12.7203 19.5197 13.1588 19.5197H16.4529C17.3058 19.5197 17.926 20.3418 17.5347 21.0996C16.9214 22.2873 16.0302 23.2595 14.8612 24.0162C13.2336 25.0852 11.3346 25.6196 9.16442 25.6196C6.28653 25.6196 4.03376 24.7366 2.4061 22.9705C0.802034 21.1812 0 18.9853 0 16.3826C0 13.7335 0.861007 11.5376 2.58302 9.79472C4.32863 8.02865 6.55781 7.14561 9.27057 7.14561ZM9.23519 11.8861C8.36239 11.8861 7.59574 12.0953 6.93524 12.5135C6.43301 12.825 6.04812 13.2305 5.78058 13.7298C5.67464 13.9275 5.82941 14.1518 6.05373 14.1518H12.3936C12.6144 14.1518 12.7696 13.9337 12.6744 13.7344C12.0861 12.5022 10.9397 11.8861 9.23519 11.8861Z" fill="url(#paint0_linear_79_42)"/>
<path d="M33.2685 9.79472C33.3201 9.79472 33.362 9.75285 33.362 9.70121V3.86104C33.362 1.72865 35.0906 0 37.223 0H37.5241C38.2349 0 38.8111 0.576216 38.8111 1.28701V24.0789C38.8111 24.6755 38.4011 25.1939 37.8206 25.3313L36.0541 25.7497C35.5053 25.8796 34.9358 25.6371 34.6491 25.1514L33.3998 23.0347C33.3764 22.9949 33.3336 22.9705 33.2875 22.9705C33.2454 22.9705 33.206 22.9909 33.1811 23.0248C32.6195 23.7899 31.8777 24.4109 30.9559 24.8876C30.0123 25.3756 28.9508 25.6196 27.7713 25.6196C25.3652 25.6196 23.3955 24.7482 21.8622 23.0054C20.3525 21.2393 19.5976 19.0085 19.5976 16.3129C19.5976 13.5941 20.3643 11.3865 21.8976 9.69015C23.4545 7.99379 25.4124 7.14561 27.7713 7.14561C28.9508 7.14561 30.0123 7.38961 30.9559 7.8776C31.8839 8.35755 32.6294 8.98362 33.1923 9.75578C33.2101 9.78015 33.2383 9.79472 33.2685 9.79472ZM26.3206 13.4198C25.5421 14.1867 25.1529 15.1743 25.1529 16.3826C25.1529 17.591 25.5421 18.5902 26.3206 19.3803C27.099 20.1471 28.078 20.5306 29.2574 20.5306C30.4369 20.5306 31.4159 20.1355 32.1943 19.3454C32.9728 18.5554 33.362 17.5678 33.362 16.3826C33.362 15.2207 32.9728 14.2448 32.1943 13.4547C31.4394 12.6413 30.4605 12.2347 29.2574 12.2347C28.078 12.2347 27.099 12.6297 26.3206 13.4198Z" fill="url(#paint1_linear_79_42)"/>
<path d="M41.5216 16.9055V11.5644C41.5216 9.43197 43.2503 7.70332 45.3827 7.70332H45.7191C46.4299 7.70332 47.0061 8.27954 47.0061 8.99033V16.8358C47.0061 17.835 47.2892 18.6832 47.8553 19.3803C48.4215 20.0542 49.2471 20.3911 50.3322 20.3911C51.4173 20.3911 52.2429 20.0542 52.8091 19.3803C53.3752 18.6832 53.6583 17.835 53.6583 16.8358V11.5644C53.6583 9.43197 55.3869 7.70332 57.5193 7.70332H57.8558C58.5666 7.70332 59.1428 8.27954 59.1428 8.99033V16.9055C59.1428 19.6011 58.3525 21.7273 56.7721 23.2842C55.2152 24.8412 53.0686 25.6196 50.3322 25.6196C47.6194 25.6196 45.4728 24.8412 43.8923 23.2842C42.3119 21.7273 41.5216 19.6011 41.5216 16.9055Z" fill="url(#paint2_linear_79_42)"/>
<path d="M72.8934 7.14561C75.2523 7.14561 77.1985 7.99379 78.7318 9.69015C80.2886 11.3865 81.0671 13.5941 81.0671 16.3129C81.0671 19.0085 80.3004 21.2393 78.7671 23.0054C77.2574 24.7482 75.2995 25.6196 72.8934 25.6196C71.714 25.6196 70.6524 25.3756 69.7089 24.8876C68.787 24.4109 68.0453 23.7899 67.4837 23.0248C67.4588 22.9909 67.4194 22.9705 67.3773 22.9705C67.3311 22.9705 67.2884 22.9949 67.2649 23.0347L66.0156 25.1514C65.729 25.6371 65.1595 25.8796 64.6107 25.7497L62.8441 25.3313C62.2636 25.1939 61.8537 24.6755 61.8537 24.0789V1.28701C61.8537 0.576215 62.4299 0 63.1407 0H63.4417C65.5741 0 67.3028 1.72865 67.3028 3.86104V9.70122C67.3028 9.75286 67.3446 9.79472 67.3963 9.79472C67.4264 9.79472 67.4547 9.78015 67.4724 9.75579C68.0354 8.98362 68.7808 8.35755 69.7089 7.8776C70.6524 7.38961 71.714 7.14561 72.8934 7.14561ZM68.4704 19.3454C69.2489 20.1355 70.2278 20.5306 71.4073 20.5306C72.5868 20.5306 73.5657 20.1471 74.3442 19.3803C75.1226 18.5902 75.5118 17.591 75.5118 16.3826C75.5118 15.1743 75.1226 14.1867 74.3442 13.4198C73.5657 12.6297 72.5868 12.2347 71.4073 12.2347C70.2042 12.2347 69.2135 12.6413 68.4351 13.4547C67.6802 14.2448 67.3028 15.2207 67.3028 16.3826C67.3028 17.5678 67.692 18.5554 68.4704 19.3454Z" fill="url(#paint3_linear_79_42)"/>
<path d="M96.5495 9.79472C96.5956 9.79472 96.6384 9.77032 96.6618 9.73055L96.9871 9.17941C97.8232 7.76272 99.4979 7.05865 101.099 7.43771C101.667 7.57227 102.073 8.08087 102.073 8.66486V24.0789C102.073 24.6755 101.663 25.1939 101.083 25.3313L99.3161 25.7497C98.7673 25.8796 98.1978 25.6371 97.9111 25.1514L96.6618 23.0347C96.6384 22.9949 96.5956 22.9705 96.5495 22.9705C96.5074 22.9705 96.468 22.9909 96.4431 23.0248C95.8815 23.7899 95.1398 24.4109 94.2179 24.8876C93.2743 25.3756 92.2128 25.6196 91.0333 25.6196C88.6744 25.6196 86.7165 24.7715 85.1596 23.0751C83.6263 21.3787 82.8597 19.1712 82.8597 16.4523C82.8597 13.7568 83.6145 11.5376 85.1242 9.79472C86.6575 8.02865 88.6272 7.14561 91.0333 7.14561C92.2128 7.14561 93.2743 7.38961 94.2179 7.8776C95.1398 8.35437 95.8815 8.97532 96.4431 9.74045C96.468 9.77437 96.5074 9.79472 96.5495 9.79472ZM92.5194 20.5306C93.7225 20.5306 94.7015 20.1355 95.4563 19.3454C96.2348 18.5321 96.624 17.5445 96.624 16.3826C96.624 15.1975 96.2348 14.2099 95.4563 13.4198C94.6779 12.6297 93.6989 12.2347 92.5194 12.2347C91.34 12.2347 90.361 12.6297 89.5826 13.4198C88.8041 14.1867 88.4149 15.1743 88.4149 16.3826C88.4149 17.591 88.8041 18.5902 89.5826 19.3803C90.361 20.1471 91.34 20.5306 92.5194 20.5306Z" fill="url(#paint4_linear_79_42)"/>
<path d="M119.951 11.6629C119.951 12.0252 119.799 12.3706 119.531 12.6145L112.144 19.3404C111.927 19.5384 112.067 19.9001 112.361 19.9001H116.444C118.576 19.9001 120.305 21.6287 120.305 23.7611V23.8416C120.305 24.5524 119.729 25.1286 119.018 25.1286H105.315C104.605 25.1286 104.028 24.5524 104.028 23.8416V21.1659C104.028 20.8037 104.181 20.4582 104.449 20.2143L111.835 13.4884C112.053 13.2905 111.913 12.9288 111.619 12.9288H108.243C106.111 12.9288 104.382 11.2001 104.382 9.06771V8.98727C104.382 8.27648 104.958 7.70026 105.669 7.70026H118.664C119.375 7.70026 119.951 8.27648 119.951 8.98728V11.6629Z" fill="url(#paint5_linear_79_42)"/>
<path d="M134.848 9.82652C134.894 9.82652 134.937 9.80212 134.961 9.76236L136.21 7.64562C136.497 7.15992 137.066 6.91743 137.615 7.04739L139.381 7.46572C139.962 7.60318 140.372 8.12155 140.372 8.7181V24.1107C140.372 24.7073 139.962 25.2257 139.381 25.3631L137.615 25.7815C137.066 25.9114 136.497 25.6689 136.21 25.1832L134.961 23.0665C134.937 23.0267 134.894 23.0023 134.848 23.0023C134.806 23.0023 134.767 23.0227 134.742 23.0566C134.18 23.8217 133.439 24.4427 132.517 24.9194C131.573 25.4074 130.512 25.6514 129.332 25.6514C126.973 25.6514 125.015 24.8033 123.458 23.1069C121.925 21.4105 121.158 19.203 121.158 16.4841C121.158 13.7886 121.913 11.5693 123.423 9.82652C124.956 8.06045 126.926 7.17741 129.332 7.17741C130.512 7.17741 131.573 7.42141 132.517 7.9094C133.439 8.38617 134.18 9.00712 134.742 9.77225C134.767 9.80617 134.806 9.82652 134.848 9.82652ZM130.818 20.5624C132.021 20.5624 133 20.1673 133.755 19.3772C134.534 18.5639 134.923 17.5763 134.923 16.4144C134.923 15.2293 134.534 14.2417 133.755 13.4516C132.977 12.6615 131.998 12.2665 130.818 12.2665C129.639 12.2665 128.66 12.6615 127.881 13.4516C127.103 14.2185 126.714 15.2061 126.714 16.4144C126.714 17.6228 127.103 18.622 127.881 19.4121C128.66 20.1789 129.639 20.5624 130.818 20.5624Z" fill="url(#paint6_linear_79_42)"/>
<defs>
<linearGradient id="paint0_linear_79_42" x1="32.69" y1="-33.4509" x2="98.9222" y2="55.8461" gradientUnits="userSpaceOnUse">
<stop stop-color="#00B3FF"/>
<stop offset="1" stop-color="#0051FF"/>
</linearGradient>
<linearGradient id="paint1_linear_79_42" x1="32.69" y1="-33.4509" x2="98.9222" y2="55.8461" gradientUnits="userSpaceOnUse">
<stop stop-color="#00B3FF"/>
<stop offset="1" stop-color="#0051FF"/>
</linearGradient>
<linearGradient id="paint2_linear_79_42" x1="32.69" y1="-33.4509" x2="98.9222" y2="55.8461" gradientUnits="userSpaceOnUse">
<stop stop-color="#00B3FF"/>
<stop offset="1" stop-color="#0051FF"/>
</linearGradient>
<linearGradient id="paint3_linear_79_42" x1="32.69" y1="-33.4509" x2="98.9222" y2="55.8461" gradientUnits="userSpaceOnUse">
<stop stop-color="#00B3FF"/>
<stop offset="1" stop-color="#0051FF"/>
</linearGradient>
<linearGradient id="paint4_linear_79_42" x1="32.69" y1="-33.4509" x2="98.9222" y2="55.8461" gradientUnits="userSpaceOnUse">
<stop stop-color="#00B3FF"/>
<stop offset="1" stop-color="#0051FF"/>
</linearGradient>
<linearGradient id="paint5_linear_79_42" x1="32.69" y1="-33.4509" x2="98.9222" y2="55.8461" gradientUnits="userSpaceOnUse">
<stop stop-color="#00B3FF"/>
<stop offset="1" stop-color="#0051FF"/>
</linearGradient>
<linearGradient id="paint6_linear_79_42" x1="32.69" y1="-33.4509" x2="98.9222" y2="55.8461" gradientUnits="userSpaceOnUse">
<stop stop-color="#00B3FF"/>
<stop offset="1" stop-color="#0051FF"/>
</linearGradient>
</defs>
</svg>
